<?xml version="1.0" encoding="UTF-8"?>
<svg xmlns="http://www.w3.org/2000/svg" xmlns:xlink="http://www.w3.org/1999/xlink" width="32px" height="32px" viewBox="0 0 32 32" version="1.1">
<g id="surface1">
<path style="fill:none;stroke-width:2;stroke-linecap:round;stroke-linejoin:round;stroke:rgb(95.294118%,50.588238%,60.392159%);stroke-opacity:1;stroke-miterlimit:4;" d="M 5.000977 9.776367 L 5.000977 16.201172 C 5.000977 17.879883 5.000977 18.720703 5.326172 19.362305 C 5.613281 19.927734 6.073242 20.384766 6.638672 20.671875 C 7.280273 21 8.121094 21 9.799805 21 L 14.200195 21 C 15.878906 21 16.719727 21 17.361328 20.671875 C 17.926758 20.384766 18.386719 19.927734 18.673828 19.362305 C 18.999023 18.720703 18.999023 17.879883 18.999023 16.201172 L 18.999023 5.000977 M 21 12 L 15.56543 5.964844 C 14.332031 4.59082 13.713867 3.905273 12.984375 3.650391 C 12.345703 3.427734 11.651367 3.427734 11.012695 3.650391 C 10.283203 3.905273 9.667969 4.59082 8.431641 5.964844 L 3 12 M 14.000977 21 L 14.000977 15 L 9.999023 15 L 9.999023 21 " transform="matrix(1.333333,0,0,1.333333,0,0)"/>
</g>
</svg>
